<?xml version='1.0' encoding='utf-8'?>
<svg xmlns="http://www.w3.org/2000/svg" viewBox="214 1147.11 21 21" fill="none"><circle cx="220.75" cy="1148.86" r="0.75" fill="#736761" />
<circle cx="223.25" cy="1148.86" r="0.75" fill="#736761" />
<circle cx="225.75" cy="1148.86" r="0.75" fill="#736761" />
<circle cx="228.25" cy="1148.86" r="0.75" fill="#736761" />
<circle cx="218.25" cy="1151.36" r="0.75" fill="#736761" />
<circle cx="230.75" cy="1151.36" r="0.75" fill="#736761" />
<circle cx="215.75" cy="1153.86" r="0.75" fill="#736761" />
<circle cx="233.25" cy="1153.86" r="0.75" fill="#736761" />
<circle cx="215.75" cy="1156.36" r="0.75" fill="#736761" />
<circle cx="233.25" cy="1156.36" r="0.75" fill="#736761" />
<circle cx="215.75" cy="1158.86" r="0.75" fill="#736761" />
<circle cx="233.25" cy="1158.86" r="0.75" fill="#736761" />
<circle cx="218.25" cy="1161.36" r="0.75" fill="#736761" />
<circle cx="230.75" cy="1161.36" r="0.75" fill="#736761" />
<circle cx="220.75" cy="1163.86" r="0.75" fill="#736761" />
<circle cx="223.25" cy="1163.86" r="0.75" fill="#736761" />
<circle cx="225.75" cy="1163.86" r="0.75" fill="#736761" />
<circle cx="228.25" cy="1163.86" r="0.75" fill="#736761" />
<circle cx="220.75" cy="1153.86" r="0.75" fill="#736761" />
<circle cx="223.25" cy="1153.86" r="0.75" fill="#736761" />
<circle cx="225.75" cy="1153.86" r="0.75" fill="#736761" />
<circle cx="228.25" cy="1153.86" r="0.75" fill="#736761" />
<circle cx="220.75" cy="1158.86" r="0.75" fill="#736761" />
<circle cx="223.25" cy="1158.86" r="0.75" fill="#736761" />
<circle cx="225.75" cy="1158.86" r="0.75" fill="#736761" />
<circle cx="228.25" cy="1158.86" r="0.75" fill="#736761" />
</svg>