<?xml version='1.0' encoding='utf-8'?>
<svg xmlns="http://www.w3.org/2000/svg" viewBox="928 1147.11 21 21" fill="none"><circle cx="931.25" cy="1151.36" r="0.75" fill="#736761" />
<circle cx="933.75" cy="1151.36" r="0.75" fill="#736761" />
<circle cx="936.25" cy="1151.36" r="0.75" fill="#736761" />
<circle cx="938.75" cy="1151.36" r="0.75" fill="#736761" />
<circle cx="941.25" cy="1151.36" r="0.75" fill="#736761" />
<circle cx="943.75" cy="1151.36" r="0.75" fill="#736761" />
<circle cx="946.25" cy="1151.36" r="0.75" fill="#736761" />
<circle cx="938.75" cy="1153.86" r="0.75" fill="#736761" />
<circle cx="938.75" cy="1156.36" r="0.75" fill="#736761" />
<circle cx="938.75" cy="1158.86" r="0.75" fill="#736761" />
<circle cx="938.75" cy="1161.36" r="0.75" fill="#736761" />
<circle cx="938.75" cy="1163.86" r="0.75" fill="#736761" />
<circle cx="931.25" cy="1164.36" r="0.75" fill="#736761" />
<circle cx="933.75" cy="1164.36" r="0.75" fill="#736761" />
<circle cx="936.25" cy="1164.36" r="0.75" fill="#736761" />
<circle cx="941.25" cy="1164.36" r="0.75" fill="#736761" />
<circle cx="943.75" cy="1164.36" r="0.75" fill="#736761" />
<circle cx="946.25" cy="1164.36" r="0.75" fill="#736761" />
<circle cx="931.25" cy="1151.36" r="0.75" fill="#736761" />
<circle cx="946.25" cy="1151.36" r="0.75" fill="#736761" />
<circle cx="938.75" cy="1157.86" r="0.75" fill="#736761" />
<circle cx="931.25" cy="1164.36" r="0.75" fill="#736761" />
<circle cx="946.25" cy="1164.36" r="0.75" fill="#736761" />
</svg>